# xmcd
#
# Track frame offsets:
#	150
#	20088
#	37254
#	52684
#	67258
#	86983
#	104443
#	121217
#	135475
#	154407
#	172407
#	187933
#	205036
#	221475
#	234309
#
# Disc length: 3338 seconds
#
# Revision: 1
# Processed by: cddbd v1.5.2PL0 Copyright (c) Steve Scherf et al.
# Submitted via: audiograbber 1.83.01
#
DISCID=dc0d080f
DTITLE=Compilation - CBP 60013
DYEAR=1900
DGENRE=
TTITLE0=Jackson, Alan - Who's Cheatin' Who
TTITLE1=Wills, Mark - Places I've Never Been
TTITLE2=Womack, Lee Ann - Never Again, Again
TTITLE3=Gill, Vince - Little More Love, A
TTITLE4=Montgomery, John Michael - I Miss You A Little
TTITLE5=Rimes, LeAnn - Light In Your Eyes, The
TTITLE6=Diffie, Joe - This Is Your Brain
TTITLE7=Chestnutt, Mark - Let It Rain
TTITLE8=Mason, Mila - Dark Horse
TTITLE9=Burnin' Daylight - Say Yes
TTITLE10=Lines, Aaron - Little Texas Bad For Us
TTITLE11=Yearwood, Trisha - I Need You
TTITLE12=Big House - Cold Outside
TTITLE13=McCready, Mindy - Girls Gotta Do (What A Girl's Gotta Do)
TTITLE14=Tritt, Travis - She's Going Home With Me
EXTD=
EXTT0=
EXTT1=
EXTT2=
EXTT3=
EXTT4=
EXTT5=
EXTT6=
EXTT7=
EXTT8=
EXTT9=
EXTT10=
EXTT11=
EXTT12=
EXTT13=
EXTT14=
PLAYORDER=
